# https://github.com/mikedh/trimesh
v 0.00000000 0.00000000 0.00000000
v 0.00000000 0.00000000 1.00000000
v -0.00000000 -0.50000000 0.00000000
v 0.00000000 0.50000000 0.00000000
v -0.19134172 0.46193977 0.00000000
v -0.19134172 -0.46193977 0.00000000
v -0.27778512 0.41573481 0.00000000
v -0.27778512 -0.41573481 0.00000000
v -0.35355339 -0.35355339 0.00000000
v -0.35355339 0.35355339 0.00000000
v 0.46193977 -0.19134172 0.00000000
v 0.46193977 0.19134172 0.00000000
v -0.49039264 -0.09754516 0.00000000
v -0.49039264 0.09754516 0.00000000
v 0.41573481 -0.27778512 0.00000000
v 0.41573481 0.27778512 0.00000000
v -0.09754516 -0.49039264 0.00000000
v -0.09754516 0.49039264 0.00000000
v -0.50000000 0.00000000 0.00000000
v 0.50000000 0.00000000 0.00000000
v 0.09754516 -0.49039264 0.00000000
v 0.09754516 0.49039264 0.00000000
v -0.41573481 -0.27778512 0.00000000
v -0.41573481 0.27778512 0.00000000
v 0.49039264 -0.09754516 0.00000000
v 0.49039264 0.09754516 0.00000000
v -0.46193977 -0.19134172 0.00000000
v -0.46193977 0.19134172 0.00000000
v 0.35355339 -0.35355339 0.00000000
v 0.35355339 0.35355339 0.00000000
v 0.27778512 0.41573481 0.00000000
v 0.27778512 -0.41573481 0.00000000
v 0.19134172 0.46193977 0.00000000
v 0.19134172 -0.46193977 0.00000000
f 20 1 26
f 20 26 2
f 26 1 12
f 26 12 2
f 12 1 16
f 12 16 2
f 16 1 30
f 16 30 2
f 30 1 31
f 30 31 2
f 31 1 33
f 31 33 2
f 33 1 22
f 33 22 2
f 22 1 4
f 22 4 2
f 4 1 18
f 4 18 2
f 18 1 5
f 18 5 2
f 5 1 7
f 5 7 2
f 7 1 10
f 7 10 2
f 10 1 24
f 10 24 2
f 24 1 28
f 24 28 2
f 28 1 14
f 28 14 2
f 14 1 19
f 14 19 2
f 19 1 13
f 19 13 2
f 13 1 27
f 13 27 2
f 27 1 23
f 27 23 2
f 23 1 9
f 23 9 2
f 9 1 8
f 9 8 2
f 8 1 6
f 8 6 2
f 6 1 17
f 6 17 2
f 17 1 3
f 17 3 2
f 3 1 21
f 3 21 2
f 21 1 34
f 21 34 2
f 34 1 32
f 34 32 2
f 32 1 29
f 32 29 2
f 29 1 15
f 29 15 2
f 15 1 11
f 15 11 2
f 11 1 25
f 11 25 2
f 25 1 20
f 25 20 2